<?xml version="1.0" standalone="no"?>
<!DOCTYPE svg PUBLIC "-//W3C//DTD SVG 20010904//EN"
 "http://www.w3.org/TR/2001/REC-SVG-20010904/DTD/svg10.dtd">
<svg version="1.0" xmlns="http://www.w3.org/2000/svg"
 width="369.000000pt" height="369.000000pt" viewBox="0 0 369.000000 369.000000"
 preserveAspectRatio="xMidYMid meet">
<metadata>
Created by potrace 1.11, written by Peter Selinger 2001-2013
</metadata>
<g transform="translate(0.000000,369.000000) scale(0.100000,-0.100000)"
fill="#000000" stroke="none">
<path d="M2410 3332 c0 -5 -8 -17 -18 -28 -28 -31 -397 -484 -445 -547 -12
-16 -29 -36 -38 -45 -8 -10 -121 -147 -249 -307 -129 -159 -237 -292 -240
-295 -3 -3 -23 -27 -45 -55 -21 -27 -42 -52 -45 -55 -3 -3 -39 -48 -80 -100
-94 -119 -99 -125 -133 -164 -15 -17 -31 -35 -35 -41 -4 -5 -66 -82 -137 -170
-71 -88 -149 -185 -173 -215 -24 -30 -53 -66 -66 -80 -12 -14 -36 -43 -52 -65
-16 -22 -34 -44 -40 -50 -6 -5 -58 -68 -115 -140 -57 -71 -106 -132 -109 -135
-3 -3 -21 -25 -40 -50 -19 -25 -37 -47 -40 -50 -3 -3 -53 -63 -110 -135 -58
-71 -107 -132 -110 -135 -3 -3 -24 -29 -48 -57 l-43 -53 374 0 373 0 70 86
c38 47 74 91 79 97 6 7 58 71 116 142 58 72 196 243 308 380 112 138 217 268
234 289 18 22 48 59 67 82 19 23 47 57 61 75 31 40 262 325 287 354 9 11 64
79 121 150 58 72 146 180 196 241 49 60 106 130 125 154 19 24 57 70 85 103
l50 59 7 -34 c4 -18 10 -53 13 -77 3 -24 22 -137 41 -250 19 -113 37 -217 39
-231 1 -14 17 -108 35 -210 17 -102 33 -196 35 -210 2 -14 6 -38 9 -55 3 -16
12 -75 21 -129 9 -55 18 -102 19 -105 2 -3 7 -28 10 -56 4 -27 37 -230 74
-450 l67 -400 388 -3 387 -2 -5 27 c-3 16 -19 107 -35 203 -17 96 -32 185 -35
198 -2 13 -14 78 -25 145 -11 67 -23 132 -25 145 -2 12 -6 30 -9 40 -3 9 -7
35 -11 57 -5 39 -48 288 -99 580 -14 77 -27 154 -30 170 -3 17 -17 95 -31 175
-14 80 -46 262 -70 405 -25 143 -47 269 -49 280 -2 11 -7 36 -10 55 -3 19 -8
49 -11 65 -3 17 -10 55 -15 85 -6 30 -12 65 -14 76 -2 12 -7 39 -10 60 -4 22
-8 46 -11 54 -2 8 -6 33 -10 55 -3 22 -8 55 -11 73 l-6 32 -379 0 c-209 0
-379 -4 -379 -8z"/>
<path d="M2110 1026 c-85 -105 -213 -263 -284 -351 -71 -88 -159 -195 -194
-237 l-64 -78 427 0 c249 0 424 4 421 9 -3 5 -8 26 -11 47 -3 22 -7 48 -9 59
-2 11 -9 54 -16 95 -6 41 -14 86 -16 100 -3 14 -13 77 -24 140 -10 63 -26 158
-35 210 -9 52 -18 110 -21 129 -13 77 -11 78 -174 -123z"/>
</g>
</svg>
